<svg version="1.1" xmlns="http://www.w3.org/2000/svg" xmlns:xlink="http://www.w3.org/1999/xlink" viewBox="0 0 172 172">
  <defs>
    <linearGradient id="myGradient" gradientTransform="rotate(80)">
      <stop offset="5%"  stop-color="#1f005c" />
      <stop offset="95%" stop-color="#f39060" />
    </linearGradient>
  </defs>
<g transform="translate(-5.16,-5.16) scale(1.06,1.06)">
    <g fill="none" fill-rule="nonzero" stroke="none" stroke-width="1" stroke-linecap="butt" stroke-linejoin="miter" stroke-miterlimit="10" stroke-dasharray="" stroke-dashoffset="0" font-family="none" font-weight="none" font-size="none" text-anchor="none" style="mix-blend-mode: normal">
        <path d="M0,172v-172h172v172z" fill="none"></path>
        <g fill="url('#myGradient')">
            <path d="M68.155,6.7725l-0.7525,0.43l-37.84,17.2l-1.075,0.43l-0.5375,1.075l-20.64,37.84l-0.5375,0.86l0.1075,0.9675l3.44,51.6l0.1075,1.1825l0.7525,0.9675l34.4,37.84l0.86,0.86l1.1825,0.215l48.16,6.88l0.9675,0.1075l0.86,-0.3225l41.28,-17.2l0.9675,-0.43l17.7375,-24.8325l0.43,-0.7525l0.215,-0.7525l6.88,-44.72l0.1075,-0.86l-0.3225,-0.86l-13.76,-37.84l-0.3225,-0.9675l-0.9675,-0.645l-34.4,-24.08l-0.7525,-0.5375l-0.9675,-0.1075l-44.72,-3.44zM68.2625,14.2975l8.6,6.88l-27.4125,1.72zM79.6575,14.62l18.1675,1.3975l-11.18,4.1925zM112.1225,17.9525l12.685,19.0275l-29.67,-12.685zM126.5275,26.9825l14.62,10.32l-5.805,2.9025zM77.9375,28.0575l-19.565,21.93l-19.4575,-19.4575zM91.2675,29.9925l36.335,15.5875l-25.9075,20.7475zM84.3875,31.0675l10.105,35.1525l-30.2075,-12.5775zM33.97,35.475l19.78,19.78l-22.2525,24.6175zM26.66,42.57l-2.0425,36.8725l-10.2125,-14.2975zM145.985,42.6775l11.2875,30.96l-10.535,4.3l-8.4925,-31.39zM132.225,50.6325l7.4175,27.305l-32.25,-7.4175zM62.2425,60.415l31.39,13.0075l-28.7025,28.7025zM55.5775,63.425l2.4725,40.42l-25.2625,-15.1575zM104.5975,76.8625l33.97,7.8475l-23.5425,31.2825zM14.62,77.2925l8.9225,12.47l-7.2025,14.2975zM98.04,78.905l10.6425,39.99l-39.99,-10.6425zM157.2725,81.1625l-3.44,22.6825l-5.2675,-19.2425zM142.975,90.3l7.4175,26.9825l-29.455,2.4725zM33.0025,96.6425l22.6825,13.6525l-15.8025,11.2875zM26.5525,99.115l6.1275,22.2525l-14.19,-6.1275zM60.9525,115.025l16.2325,25.37l-32.3575,-13.8675zM69.66,115.67l36.765,9.7825l-19.6725,17.2zM147.5975,124.485l-10.6425,14.9425l-14.9425,-12.7925zM26.9825,126.3125l8.17,3.5475l3.5475,9.3525zM113.52,128.355l15.48,13.2225l-33.11,2.2575zM43.86,133.6225l30.4225,13.0075l-23.9725,4.3zM117.0675,149.3175l-19.565,8.17l-4.945,-6.5575zM84.495,151.6825l4.085,5.375l-19.0275,-2.6875z"></path>
        </g>
    </g>
</g>
</svg>